<svg xmlns="http://www.w3.org/2000/svg" xmlns:xlink="http://www.w3.org/1999/xlink" width="700" height="700" viewBox="0 0 700 700">
  <defs>
    <clipPath id="clip-custom_1">
      <rect width="700" height="700"/>
    </clipPath>
  </defs>
  <g id="custom_1" data-name="custom – 1" clip-path="url(#clip-custom_1)">
    <rect width="700" height="700" fill="#fff"/>
    <rect id="blue" width="700" height="700" fill="#fff"/>
    <g id="passion" transform="translate(181 180.911)">
      <path id="Path_12" data-name="Path 12" d="M234.662,405.9a36.907,36.907,0,0,1-17.006,23.8c-3.289,1.993-6.655,5.942-6.655,15.209,0,13.251,9.687,26.466,27.985,26.708a32.582,32.582,0,0,0,31.45-32.492c0-21.747-14.955-40.719-35.125-45.856A38.069,38.069,0,0,1,234.662,405.9Z" transform="translate(-71.659 -133.53)" fill="#f00"/>
      <path id="Path_13" data-name="Path 13" d="M201.16,260.618a29.72,29.72,0,0,1-57.635,10.2l-7.536,11.3a72.989,72.989,0,0,0-10.718,55.517c6.22,28.812,19.394,49.526,39.132,60.955a46.069,46.069,0,0,1-2.866-15.544c0-14.375,5.446-25.637,16.193-32.158a17.279,17.279,0,0,0,7.942-11.144,18.444,18.444,0,0,0-2.66-14.191l-10.274-15.4h21.408c36.643,0,66.448,30.465,66.448,67.108a51.785,51.785,0,0,1-5.525,22.958c14.159-7.284,25.213-19.257,32.843-34.811,13.437-27.405,6.172-61.331-18.08-84.422-16.687-15.894-24.9-31.217-25.093-46.859a47.115,47.115,0,0,1,5.881-23.033,49.586,49.586,0,0,0-49.461,49.53Z" transform="translate(-42.007 -71.658)" fill="#f00"/>
      <path id="Path_14" data-name="Path 14" d="M68.134,218.112A92.435,92.435,0,0,1,77.5,199.465l42.032-63.024v52.518a9.906,9.906,0,1,0,19.812,0,69.424,69.424,0,0,1,69.341-69.341h43.725L235.5,136.527c-8.822,8.822-13.059,17.219-12.953,25.684.125,10.031,6.317,20.74,18.941,32.755a100.918,100.918,0,0,1,21.941,30.921c42.46-38.281,74.691-75.337,74.691-125.625C338.118,41.669,300.678.089,248.305.089a89.253,89.253,0,0,0-79.295,48.426A89.255,89.255,0,0,0,89.812.089C37.439.089,0,41.669,0,100.262c0,49.238,30.062,83.981,68.134,117.85Z" transform="translate(0 0)" fill="#f00"/>
    </g>
  </g>
</svg>
