<svg xmlns="http://www.w3.org/2000/svg" xmlns:xlink="http://www.w3.org/1999/xlink" width="700" height="700" viewBox="0 0 700 700">
  <defs>
    <clipPath id="clip-custom_1">
      <rect width="700" height="700"/>
    </clipPath>
  </defs>
  <g id="custom_1" data-name="custom – 1" clip-path="url(#clip-custom_1)">
    <rect width="700" height="700" fill="#8bd9c7"/>
    <rect id="blue" width="700" height="700" fill="#95d8eb"/>
    <g id="hand-shake" transform="translate(140 112.343)">
      <path id="Path_1" data-name="Path 1" d="M419.415,110.612V252.279s-27.173,5.973-32.771,6.759c-5.58.784-23.116,7.1-35.825-6.529-19.6-20.96-89.233-98.231-89.233-98.231s-12.006-13.146-31.285-1.785c-17.7,10.408-43.929,25.66-54.886,31.6-20.713,12.3-37.881-7.216-37.881-22.083,0-11.532,6.449-19.359,15.668-25.115,24.984-16.9,77.644-49.882,99.577-62.886,13.332-7.912,22.937-8.59,41.241,8.615,22.542,21.154,42.6,40.437,42.6,40.437A19.279,19.279,0,0,0,353.6,126.7C379.225,120.655,419.415,110.612,419.415,110.612ZM142.251,350.653c3.372-9.667,2.245-20.48-4.22-27.9-5.809-6.635-14.291-8.384-22.379-6.316,2.262-8.951,1.013-18.477-4.828-25.2-5.827-6.618-14.293-8.4-22.38-6.315,2.245-8.937,1-18.463-4.845-25.166-9.151-10.474-24.98-10.024-35.379,1.036-10.344,11.075-16.97,31.141-7.738,42.951,9.216,11.751,19.806,4.6,27.879,2.549-2.246,8.937-8.975,17.251-.688,28.949s19.805,4.6,27.887,2.569c-2.254,8.9-8.689,18.051-.72,28.9,8.041,10.88,21.211,5.083,29.91,2.068-3.357,9.63-10.542,20.012-1.311,31.645,9.217,11.717,30.518,6.3,40.922-4.781,10.377-11.075,11.373-28.628,2.246-39.135C160.307,349.3,150.914,347.62,142.251,350.653ZM332.1,276.95c-75.214-83.926-39.837-44.435-80.313-89.7,0,0-12.165-13.513-28.2-5.664-11.255,5.5-25.745,13-36.648,18.729-11.981,7.01-20.6,9.18-24.652,9.15-23.162-.169-41.953-20.942-41.953-46.761,0-16.749,7.969-31.331,19.854-39.609,16.713-12.905,55.183-35.737,55.183-35.737s-11.72-16.571-37.393-16.571-79.288,39.2-79.288,39.2-15.212,10.872-36.9,1.079L0,94.828V256.935s11.935,3.854,22.658,8.742a54.455,54.455,0,0,1,11.751-20.7c17.79-18.908,47.279-19.1,63.465-.507a46.27,46.27,0,0,1,10.015,19.852A40.053,40.053,0,0,1,125.066,276,46.158,46.158,0,0,1,135.1,295.818a40.224,40.224,0,0,1,17.177,11.7,47.583,47.583,0,0,1,10.607,21.707,40.545,40.545,0,0,1,17.92,11.985c9.728,11.149,13.18,26.275,11.088,40.866a.062.062,0,0,1,.064.033c.159.232,6.027,7.531,9.686,11.648a17.15,17.15,0,0,0,26.073,0,22.385,22.385,0,0,0,0-29.094c-.257-.286-25.871-30.181-23.81-32.5,2.046-2.3,34.68,35.587,35.287,36.28a17.155,17.155,0,0,0,26.057,0,22.34,22.34,0,0,0,0-29.075c-.352-.374-1.821-1.944-2.366-2.569,0,0-32.355-32.161-29.893-34.909,2.493-2.765,42.683,39.085,42.748,39.085,7.224,7.259,18.352,7.206,25.3-.553,6.762-7.545,6.907-19.479.912-27.521-.127-.428-30.629-36-28.248-38.672,2.415-2.711,32.6,31.966,32.66,32.038a17.158,17.158,0,0,0,26.057,0c7.162-7.992,7.162-21.048,0-29.111C332.323,277.091,332.2,277.019,332.1,276.95Z" fill="#f2fff8"/>
    </g>
  </g>
</svg>
