<svg xmlns="http://www.w3.org/2000/svg" xmlns:xlink="http://www.w3.org/1999/xlink" width="700" height="700" viewBox="0 0 700 700">
  <defs>
    <clipPath id="clip-custom_1">
      <rect width="700" height="700"/>
    </clipPath>
  </defs>
  <g id="custom_1" data-name="custom – 1" clip-path="url(#clip-custom_1)">
    <rect width="700" height="700" fill="#8bd9c7"/>
    <rect id="green" width="700" height="700" fill="#8bd9c7"/>
    <g id="product_1_" data-name="product (1)" transform="translate(216 156.261)">
      <path id="Path_2" data-name="Path 2" d="M78.8,18a65.8,65.8,0,1,0,65.8,65.8A65.873,65.873,0,0,0,78.8,18ZM26.16,83.8A52.7,52.7,0,0,1,78.8,31.16v13.16A39.518,39.518,0,0,0,39.319,83.8Zm39.479,48.783L41.247,108.189l9.3-9.3,15.087,15.087L120.2,59.407l9.3,9.3Z" transform="translate(55.798 72.537)" fill="rgba(255,242,129,0.66)"/>
      <path id="Path_3" data-name="Path 3" d="M134.6,244.873a105.277,105.277,0,1,1,65.8-187.268V25.634l-.289-.164a25.923,25.923,0,0,0-30.089,3.125l-7.429,6.547-3.158-9.383a26.237,26.237,0,0,0-49.658-.007l-3.158,9.383-7.429-6.547a25.9,25.9,0,0,0-30.089-3.125l-.579.336A25.89,25.89,0,0,0,56.178,53.42l1.954,9.705-9.705-1.954A25.906,25.906,0,0,0,20.8,73.508l-.336.579a25.908,25.908,0,0,0,3.125,30.089l6.547,7.429-9.383,3.158A25.907,25.907,0,0,0,3,139.26v.665a25.9,25.9,0,0,0,17.752,24.5l9.383,3.158-6.547,7.429A25.908,25.908,0,0,0,20.463,205.1l.336.579A25.876,25.876,0,0,0,48.42,218.02l9.705-1.954-1.954,9.705a25.908,25.908,0,0,0,12.337,27.622l.579.336A25.875,25.875,0,0,0,99.177,250.6l7.429-6.547,3.158,9.383a26.238,26.238,0,0,0,49.658,0l3.158-9.383,7.429,6.547a25.93,25.93,0,0,0,30.089,3.125l.579-.336a25.908,25.908,0,0,0,12.337-27.622l-1.954-9.705,9.705,1.954a25.858,25.858,0,0,0,27.622-12.337l.336-.579a25.9,25.9,0,0,0-3.125-30.089l-6.547-7.429,9.383-3.158a25.928,25.928,0,0,0,16.9-18.246h-25.8c-3.415,54.974-49.1,98.69-104.935,98.69Z" transform="translate(0 16.739)" fill="rgba(255,242,129,0.66)"/>
      <path id="Path_4" data-name="Path 4" d="M89,54.71a39,39,0,0,1-38.38-.283l-.579-.336a38.705,38.705,0,0,1-9.935-8.33L5.13,102.841l43.407-10.85,10.89,43.571L100.537,66.77A38.767,38.767,0,0,1,89,54.71Z" transform="translate(11.885 227.438)" fill="rgba(255,242,129,0.66)"/>
      <path id="Path_5" data-name="Path 5" d="M76.847,54.091l-.579.336a38.99,38.99,0,0,1-38.373.283A39.117,39.117,0,0,1,26.373,66.816l41.084,68.746,10.89-43.571,43.407,10.85L86.775,45.761a38.563,38.563,0,0,1-9.929,8.33Z" transform="translate(130.416 227.438)" fill="rgba(255,242,129,0.66)"/>
      <path id="Path_8" data-name="Path 8" d="M166.915,41.786A92.093,92.093,0,1,0,192.9,112.7h-6.244a19.613,19.613,0,0,1-6.85-1.3,78.9,78.9,0,1,1-12.89-48.835Z" transform="translate(33.479 50.218)" fill="rgba(255,242,129,0.66)"/>
      <path id="Path_11" data-name="Path 11" d="M34.984,41.786A92.093,92.093,0,1,1,9,112.7h6.244a19.613,19.613,0,0,0,6.85-1.3,78.9,78.9,0,1,0,12.89-48.835Z" transform="translate(33.684 50.218)" fill="rgba(255,242,129,0.66)"/>
      <path id="Path_9" data-name="Path 9" d="M134.6,244.873a105.277,105.277,0,1,1,65.8-187.268V25.634l-.289-.164a25.923,25.923,0,0,0-30.089,3.125l-7.429,6.547-3.158-9.383a26.237,26.237,0,0,0-49.658-.007l-3.158,9.383-7.429-6.547a25.9,25.9,0,0,0-30.089-3.125l-.579.336A25.89,25.89,0,0,0,56.178,53.42l1.954,9.705-9.705-1.954A25.906,25.906,0,0,0,20.8,73.508l-.336.579a25.908,25.908,0,0,0,3.125,30.089l6.547,7.429-9.383,3.158A25.907,25.907,0,0,0,3,139.26v.665a25.9,25.9,0,0,0,17.752,24.5l9.383,3.158-6.547,7.429A25.908,25.908,0,0,0,20.463,205.1l.336.579A25.876,25.876,0,0,0,48.42,218.02l9.705-1.954-1.954,9.705a25.908,25.908,0,0,0,12.337,27.622l.579.336A25.875,25.875,0,0,0,99.177,250.6l7.429-6.547,3.158,9.383a26.238,26.238,0,0,0,49.658,0l3.158-9.383,7.429,6.547a25.93,25.93,0,0,0,30.089,3.125l.579-.336a25.908,25.908,0,0,0,12.337-27.622l-1.954-9.705,9.705,1.954a25.858,25.858,0,0,0,27.622-12.337l.336-.579a25.9,25.9,0,0,0-3.125-30.089l-6.547-7.429,9.383-3.158a25.928,25.928,0,0,0,16.9-18.246h-25.8c-3.415,54.974-49.1,98.69-104.935,98.69Z" transform="translate(0 16.739)" fill="rgba(255,242,129,0.66)"/>
      <path id="Path_10" data-name="Path 10" d="M133.237,243.973A104.877,104.877,0,1,0,67.689,57.417V25.567l.288-.164a25.825,25.825,0,0,1,29.975,3.114l7.4,6.522,3.146-9.347a26.137,26.137,0,0,1,49.469-.007l3.146,9.347,7.4-6.522A25.8,25.8,0,0,1,198.49,25.4l.577.334a25.791,25.791,0,0,1,12.29,27.517l-1.947,9.668,9.668-1.947A25.808,25.808,0,0,1,246.6,73.26l.334.577a25.81,25.81,0,0,1-3.114,29.975l-6.522,7.4,9.347,3.146a25.809,25.809,0,0,1,17.691,24.4v.662a25.8,25.8,0,0,1-17.685,24.41L237.3,166.98l6.522,7.4a25.81,25.81,0,0,1,3.114,29.975l-.334.577a25.777,25.777,0,0,1-27.517,12.29l-9.668-1.947,1.947,9.668a25.81,25.81,0,0,1-12.29,27.517l-.577.334a25.776,25.776,0,0,1-29.975-3.114l-7.4-6.522-3.146,9.347a26.139,26.139,0,0,1-49.469,0l-3.146-9.347-7.4,6.522A25.831,25.831,0,0,1,67.984,252.8l-.577-.334a25.81,25.81,0,0,1-12.29-27.517l1.947-9.668L47.4,217.222a25.76,25.76,0,0,1-27.517-12.29l-.334-.577a25.8,25.8,0,0,1,3.114-29.975l6.522-7.4-9.347-3.146A25.829,25.829,0,0,1,3,145.657H28.7c3.4,54.765,48.918,98.315,104.536,98.315Z" transform="translate(1.33 16.739)" fill="rgba(255,242,129,0.66)"/>
    </g>
  </g>
</svg>
