<svg height="496pt" viewBox="0 0 496 496" width="496pt" xmlns="http://www.w3.org/2000/svg"><path d="m352.230469 0c-38.398438 0-74.496094 14.953125-101.65625 42.113281l-208.460938 208.460938c-27.160156 27.152343-42.113281 63.257812-42.113281 101.65625 0 79.273437 64.496094 143.769531 143.769531 143.769531 38.398438 0 74.496094-14.953125 101.65625-42.113281l208.46875-208.472657c27.152344-27.140624 42.105469-63.246093 42.105469-101.644531 0-79.273437-64.496094-143.769531-143.769531-143.769531zm-118.117188 442.574219c-24.136719 24.136719-56.226562 37.425781-90.34375 37.425781-70.457031 0-127.769531-57.320312-127.769531-127.769531 0-34.125 13.289062-66.207031 37.425781-90.34375l98.574219-98.574219 180.6875 180.6875zm208.460938-208.460938-98.574219 98.574219-180.6875-180.6875 98.574219-98.574219c24.136719-24.136719 56.226562-37.425781 90.34375-37.425781 70.457031 0 127.769531 57.320312 127.769531 127.769531 0 34.117188-13.289062 66.207031-37.425781 90.34375zm0 0"/><path d="m431.832031 64.167969-11.3125 11.3125c17.71875 17.71875 27.480469 41.289062 27.480469 66.34375 0 25.054687-9.761719 48.625-27.480469 66.34375l-82.175781 82.175781 11.3125 11.3125 82.175781-82.175781c20.742188-20.746094 32.167969-48.320313 32.167969-77.65625 0-29.335938-11.425781-56.914063-32.167969-77.65625zm0 0"/><path d="m88 368c-17.648438 0-32 14.351562-32 32s14.351562 32 32 32 32-14.351562 32-32-14.351562-32-32-32zm0 48c-8.824219 0-16-7.175781-16-16s7.175781-16 16-16 16 7.175781 16 16-7.175781 16-16 16zm0 0"/><path d="m104 256c-26.472656 0-48 21.527344-48 48s21.527344 48 48 48 48-21.527344 48-48-21.527344-48-48-48zm0 80c-17.648438 0-32-14.351562-32-32s14.351562-32 32-32 32 14.351562 32 32-14.351562 32-32 32zm0 0"/></svg>