<svg id="Capa_1" enable-background="new 0 0 512 512" height="512" viewBox="0 0 512 512" width="512" xmlns="http://www.w3.org/2000/svg"><g><path d="m246.83 412.402c-3.384 15.22-12.524 28.022-25.752 36.035-4.98 3.018-10.078 8.998-10.078 23.031 0 20.065 14.669 40.076 42.376 40.443 26.404-.946 47.624-22.571 47.624-49.202 0-32.93-22.646-61.659-53.188-69.438.732 6.343.424 12.818-.982 19.131z"/><path d="m241 286.089c0 24.814-20.186 45-45 45-19.395 0-35.962-12.334-42.275-29.561l-11.411 17.109c-16.494 24.756-22.412 55.4-16.23 84.067 9.419 43.629 29.368 74.995 59.257 92.302-2.639-7.399-4.34-15.245-4.34-23.538 0-21.768 8.247-38.822 24.521-48.695 6.167-3.735 10.43-9.727 12.026-16.875 1.641-7.368.176-15.19-4.028-21.489l-15.557-23.32h32.417c55.488 0 100.62 46.132 100.62 101.62 0 12.524-3.179 24.219-8.366 34.764 21.44-11.03 38.179-29.16 49.733-52.713 20.347-41.499 9.346-92.871-27.378-127.837-25.269-24.067-37.705-47.271-37.998-70.957-.146-11.88 2.842-23.54 8.906-34.878-41.308.059-74.897 33.678-74.897 75.001z"/><path d="m103.173 330.234c3.726-9.833 8.273-19.376 14.18-28.237l63.647-95.435v79.526c0 8.276 6.724 15 15 15s15-6.724 15-15c0-57.891 47.109-105 105-105h66.211l-25.605 25.605c-13.359 13.359-19.775 26.074-19.614 38.892.19 15.19 9.565 31.406 28.682 49.6 14.5 13.812 25.373 29.848 33.224 46.822 64.295-57.967 113.102-114.08 113.102-190.23 0-88.725-56.693-151.688-136-151.688-52.236 0-97.632 29.824-120.073 73.33-22.5-43.521-67.852-73.33-119.927-73.33-79.307 0-136 62.963-136 151.688 0 74.559 45.522 127.169 103.173 178.457z"/></g></svg>